<svg width="36" height="38" viewBox="0 0 36 38" fill="none" xmlns="http://www.w3.org/2000/svg">
<path d="M11.157 36.9098C11.4867 37.1837 11.9018 37.3335 12.3303 37.3333L31.8333 37.3333C32.8058 37.3333 33.7384 36.947 34.4261 36.2594C35.1137 35.5717 35.5 34.6391 35.5 33.6666L35.5 20.4483C35.4997 19.5462 35.1668 18.676 34.5651 18.0039C33.9634 17.3318 33.135 16.9052 32.2385 16.8055L19 15.3333L19 4.33331C19 3.36085 18.6137 2.42822 17.9261 1.74059C17.2384 1.05295 16.3058 0.666643 15.3333 0.666643C14.3609 0.666643 13.4282 1.05295 12.7406 1.74059C12.053 2.42822 11.6667 3.36085 11.6667 4.33331L11.6667 26.3333L6.11166 24.1113C5.64758 23.9258 5.15049 23.837 4.65088 23.8505C4.15127 23.864 3.65968 23.9795 3.20629 24.1898C2.7529 24.4001 2.34726 24.7008 2.01426 25.0735C1.68127 25.4462 1.42795 25.883 1.26983 26.3571L1.06266 26.9805C0.945825 27.3302 0.937398 27.7071 1.03849 28.0618C1.13958 28.4164 1.34547 28.7322 1.62917 28.9678L11.157 36.9098Z" fill="#4E75FF"/>
</svg>
